<svg xmlns="http://www.w3.org/2000/svg" xmlns:xlink="http://www.w3.org/1999/xlink" width="1366" zoomAndPan="magnify" viewBox="0 0 1024.5 576" height="768" preserveAspectRatio="xMidYMid meet" version="1.0"><defs><g/></defs><g fill="#373434" fill-opacity="1"><g transform="translate(392.577619, 308.39038)"><g><path d="M 44.007812 -22.722656 C 43.753906 -23.3125 43.078125 -23.648438 42.484375 -23.398438 C 41.894531 -23.226562 35.390625 -20.863281 32.773438 -20.019531 C 25.171875 -17.230469 17.398438 -14.695312 9.292969 -14.019531 C 6.503906 -13.9375 3.292969 -14.019531 1.011719 -16.046875 C -0.253906 -17.570312 1.011719 -19.679688 1.519531 -21.285156 C 5.828125 -22.636719 10.304688 -24.242188 13.851562 -27.28125 C 14.949219 -28.296875 16.046875 -29.816406 15.542969 -31.503906 C 14.695312 -33.449219 12.164062 -33.449219 10.472656 -32.855469 C 6.503906 -31.503906 3.039062 -28.632812 0.84375 -25.085938 C -1.011719 -22.296875 -3.714844 -16.554688 -0.335938 -13.9375 C 4.390625 -10.390625 10.644531 -11.570312 15.710938 -12.5 C 19.257812 -13.175781 22.722656 -14.105469 26.183594 -15.121094 C 29.5625 -16.46875 42.992188 -20.863281 43.332031 -21.199219 C 43.921875 -21.371094 44.257812 -22.128906 44.007812 -22.722656 Z M 13.597656 -30.914062 C 11.148438 -27.367188 7.011719 -25.761719 3.125 -24.410156 C 5.742188 -27.703125 9.292969 -30.746094 13.597656 -30.914062 Z M 13.597656 -30.914062 "/></g></g></g><g fill="#373434" fill-opacity="1"><g transform="translate(435.059502, 308.39038)"><g/></g></g><g fill="#373434" fill-opacity="1"><g transform="translate(495.446282, 308.39038)"><g><path d="M 19.089844 -22.128906 L 12.078125 -21.875 C 13.429688 -25.085938 14.359375 -27.449219 14.445312 -27.535156 C 14.613281 -28.125 14.273438 -28.800781 13.683594 -29.054688 C 13.09375 -29.226562 12.417969 -28.972656 12.164062 -28.296875 C 12.078125 -28.125 10.894531 -25.085938 9.542969 -21.707031 L 4.644531 -21.539062 C 3.96875 -21.539062 3.464844 -20.949219 3.464844 -20.355469 C 3.546875 -19.679688 4.054688 -19.171875 4.644531 -19.171875 C 4.644531 -19.171875 4.730469 -19.171875 4.730469 -19.171875 L 8.53125 -19.34375 C 7.6875 -17.144531 6.839844 -15.121094 6.25 -13.769531 C 5.996094 -13.175781 6.335938 -12.417969 6.925781 -12.164062 C 7.09375 -12.164062 7.265625 -12.078125 7.347656 -12.078125 C 7.855469 -12.078125 8.277344 -12.417969 8.53125 -12.839844 C 9.375 -15.035156 10.304688 -17.316406 11.148438 -19.425781 L 19.171875 -19.679688 C 19.847656 -19.765625 20.355469 -20.273438 20.355469 -20.949219 C 20.355469 -21.621094 19.765625 -22.128906 19.089844 -22.128906 Z M 19.089844 -22.128906 "/></g></g></g><g fill="#373434" fill-opacity="1"><g transform="translate(518.756418, 308.39038)"><g/></g></g><g fill="#373434" fill-opacity="1"><g transform="translate(579.143199, 308.39038)"><g><path d="M 54.3125 -22.722656 C 54.058594 -23.3125 53.382812 -23.648438 52.789062 -23.398438 C 43.5 -20.019531 35.222656 -17.144531 28.210938 -14.949219 C 27.027344 -14.527344 25.929688 -14.273438 24.832031 -13.9375 C 20.523438 -12.839844 16.21875 -11.234375 11.742188 -11.570312 C 13.515625 -16.132812 17.316406 -19.34375 20.273438 -23.058594 C 21.539062 -24.324219 20.273438 -26.523438 18.496094 -26.101562 C 12.078125 -25.339844 5.996094 -22.972656 0.167969 -20.1875 C 2.957031 -23.820312 6.417969 -26.605469 9.628906 -29.816406 C 9.460938 -31.167969 8.277344 -31.675781 7.265625 -30.746094 C 2.957031 -27.027344 -1.4375 -23.058594 -4.054688 -17.90625 C -4.222656 -15.878906 -1.859375 -16.21875 -0.761719 -16.976562 C 4.984375 -20.101562 11.234375 -22.382812 17.652344 -23.648438 C 14.949219 -20.609375 12.078125 -17.738281 10.21875 -14.191406 C 9.628906 -13.007812 9.039062 -11.316406 10.136719 -10.21875 C 11.910156 -8.53125 14.78125 -9.121094 16.976562 -9.460938 C 21.117188 -10.304688 29.140625 -12.753906 29.140625 -12.753906 C 41.472656 -16.722656 53.464844 -21.117188 53.636719 -21.199219 C 54.226562 -21.371094 54.5625 -22.046875 54.3125 -22.722656 Z M 54.3125 -22.722656 "/></g></g></g></svg>