<svg xmlns="http://www.w3.org/2000/svg" xmlns:xlink="http://www.w3.org/1999/xlink" width="1366" zoomAndPan="magnify" viewBox="0 0 1024.5 576" height="768" preserveAspectRatio="xMidYMid meet" version="1.0"><defs><g/></defs><g fill="#373434" fill-opacity="1"><g transform="translate(339.34358, 277.529209)"><g><path d="M 44.007812 -22.722656 C 43.753906 -23.3125 43.078125 -23.652344 42.488281 -23.398438 C 41.898438 -23.230469 35.394531 -20.863281 32.773438 -20.019531 C 25.171875 -17.230469 17.402344 -14.699219 9.292969 -14.023438 C 6.503906 -13.9375 3.292969 -14.023438 1.011719 -16.050781 C -0.253906 -17.570312 1.011719 -19.679688 1.519531 -21.285156 C 5.828125 -22.636719 10.304688 -24.242188 13.851562 -27.285156 C 14.949219 -28.296875 16.050781 -29.816406 15.542969 -31.507812 C 14.699219 -33.449219 12.164062 -33.449219 10.472656 -32.859375 C 6.503906 -31.507812 3.039062 -28.636719 0.84375 -25.085938 C -1.011719 -22.300781 -3.714844 -16.554688 -0.335938 -13.9375 C 4.390625 -10.390625 10.644531 -11.574219 15.710938 -12.5 C 19.257812 -13.175781 22.722656 -14.105469 26.183594 -15.121094 C 29.5625 -16.472656 42.996094 -20.863281 43.332031 -21.203125 C 43.925781 -21.371094 44.261719 -22.132812 44.007812 -22.722656 Z M 13.597656 -30.914062 C 11.148438 -27.367188 7.011719 -25.761719 3.125 -24.410156 C 5.742188 -27.707031 9.292969 -30.746094 13.597656 -30.914062 Z M 13.597656 -30.914062 "/></g></g></g><g fill="#373434" fill-opacity="1"><g transform="translate(381.824486, 277.529209)"><g><path d="M 59.214844 -22.722656 C 58.960938 -23.3125 58.285156 -23.652344 57.691406 -23.398438 C 28.210938 -13.09375 21.457031 -11.574219 7.6875 -9.882812 C 5.996094 -9.882812 -2.957031 -8.871094 -1.859375 -13.175781 C -1.351562 -16.050781 -0.0859375 -18.753906 1.6875 -21.03125 C 13.429688 -27.285156 25.425781 -33.28125 35.984375 -41.558594 C 38.601562 -43.839844 41.644531 -46.121094 42.910156 -49.5 C 43.585938 -51.019531 42.402344 -52.878906 40.796875 -52.960938 C 38.347656 -53.214844 35.984375 -52.285156 33.703125 -51.355469 C 19.765625 -44.769531 7.433594 -34.71875 -1.265625 -21.878906 C -3.378906 -18.414062 -4.222656 -16.132812 -4.308594 -12.839844 C -4.308594 -6.589844 3.714844 -7.433594 7.6875 -7.433594 C 22.214844 -8.699219 33.535156 -12.585938 33.703125 -12.671875 C 46.121094 -16.640625 58.367188 -21.117188 58.453125 -21.203125 C 59.128906 -21.371094 59.382812 -22.046875 59.214844 -22.722656 Z M 32.605469 -48.148438 C 35.222656 -49.5 37.925781 -50.597656 40.882812 -50.679688 C 38.855469 -46.542969 34.96875 -43.753906 31.339844 -41.050781 C 22.808594 -34.96875 13.597656 -29.902344 4.222656 -25.171875 C 11.742188 -34.886719 21.707031 -42.488281 32.605469 -48.148438 Z M 32.605469 -48.148438 "/></g></g></g><g fill="#373434" fill-opacity="1"><g transform="translate(439.507321, 277.529209)"><g><path d="M 9.121094 -34.042969 C 8.109375 -33.789062 6.84375 -32.4375 8.023438 -31.507812 C 9.714844 -30.15625 11.910156 -33.871094 9.121094 -34.042969 Z M 36.660156 -22.722656 C 36.492188 -23.398438 35.816406 -23.652344 35.140625 -23.484375 C 31.589844 -22.132812 24.835938 -19.765625 24.75 -19.765625 C 15.203125 -16.472656 0.589844 -12.753906 -2.113281 -14.445312 C -4.222656 -15.878906 2.957031 -23.398438 5.742188 -26.015625 C 6.25 -26.4375 6.335938 -27.199219 5.828125 -27.707031 C 5.40625 -28.210938 4.644531 -28.210938 4.222656 -27.789062 C 2.617188 -26.355469 -5.152344 -19.089844 -4.816406 -14.78125 C -4.5625 -12.078125 -1.605469 -11.65625 0.421875 -11.65625 C 6.417969 -11.65625 16.554688 -14.613281 22.132812 -16.386719 C 22.132812 -16.386719 35.898438 -21.203125 35.984375 -21.203125 C 36.574219 -21.457031 36.914062 -22.132812 36.660156 -22.722656 Z M 36.660156 -22.722656 "/></g></g></g><g fill="#373434" fill-opacity="1"><g transform="translate(474.640642, 277.529209)"><g><path d="M 52.117188 -22.722656 C 51.949219 -23.398438 51.1875 -23.652344 50.597656 -23.484375 C 49.160156 -22.890625 46.375 -21.960938 46.375 -21.960938 C 36.40625 -18.078125 21.203125 -13.347656 18.667969 -14.613281 C 18.5 -14.699219 18.5 -14.78125 18.5 -14.867188 C 18.414062 -15.796875 19.429688 -17.570312 21.117188 -19.679688 C 22.890625 -21.457031 23.90625 -22.636719 26.4375 -25.761719 C 26.945312 -26.945312 24.835938 -27.113281 24.160156 -27.199219 C 23.734375 -27.199219 23.398438 -27.199219 22.976562 -27.199219 C 23.144531 -29.5625 21.457031 -31.507812 19.175781 -32.015625 C 13.769531 -33.367188 8.53125 -30.238281 4.308594 -27.113281 C 1.773438 -25.085938 -1.183594 -23.230469 -2.535156 -20.1875 C -3.210938 -18.078125 -0.421875 -17.402344 1.097656 -17.992188 C 8.195312 -19.765625 14.949219 -22.554688 22.300781 -24.410156 C 20.949219 -23.144531 18.160156 -19.679688 18.160156 -19.679688 C 16.808594 -17.738281 15.964844 -15.878906 16.132812 -14.527344 C 16.21875 -13.683594 16.726562 -12.921875 17.570312 -12.5 C 18.078125 -12.25 18.921875 -12.078125 19.933594 -12.078125 C 26.183594 -12.078125 39.871094 -16.976562 45.445312 -19.089844 C 49.078125 -20.355469 51.355469 -21.203125 51.441406 -21.203125 C 51.863281 -21.371094 52.117188 -21.707031 52.203125 -22.132812 C 52.203125 -22.382812 52.203125 -22.554688 52.117188 -22.722656 Z M 20.273438 -26.355469 C 13.429688 -24.582031 6.925781 -21.878906 0.0859375 -20.273438 C 3.800781 -24.074219 8.195312 -27.535156 13.261719 -29.394531 C 15.796875 -30.324219 21.707031 -30.492188 20.273438 -26.355469 Z M 20.273438 -26.355469 "/></g></g></g><g fill="#373434" fill-opacity="1"><g transform="translate(525.229237, 277.529209)"><g><path d="M 50.765625 -22.808594 C 50.511719 -23.398438 49.835938 -23.734375 49.160156 -23.484375 C 45.277344 -22.214844 40.460938 -20.273438 36.238281 -19.429688 C 29.394531 -17.824219 22.382812 -17.824219 15.375 -17.148438 C 15.964844 -19.257812 16.894531 -22.382812 14.359375 -23.566406 C 10.222656 -24.496094 6.25 -21.878906 2.027344 -22.132812 C 3.464844 -26.4375 6.757812 -30.070312 11.066406 -31.507812 C 10.726562 -30.324219 10.390625 -28.71875 12.164062 -28.550781 C 13.347656 -29.480469 14.445312 -31.085938 13.597656 -32.519531 C 12.417969 -34.125 10.136719 -33.871094 8.53125 -33.113281 C 4.898438 -31.421875 2.027344 -28.210938 0.335938 -24.496094 C -0.507812 -22.976562 -0.253906 -20.355469 1.859375 -19.933594 C 5.914062 -19.34375 9.714844 -21.457031 13.769531 -21.539062 C 13.515625 -20.273438 13.261719 -19.003906 13.007812 -17.738281 C 9.207031 -17.0625 4.898438 -15.710938 3.210938 -11.996094 C 2.449219 -10.304688 3.96875 -8.363281 5.742188 -8.445312 C 9.628906 -8.363281 11.910156 -12.078125 14.023438 -14.78125 C 22.890625 -15.121094 32.015625 -15.710938 40.628906 -17.992188 C 42.234375 -18.5 48.0625 -20.355469 50.007812 -21.203125 C 50.679688 -21.457031 50.933594 -22.132812 50.765625 -22.808594 Z M 5.574219 -10.472656 C 5.996094 -13.175781 8.871094 -14.105469 11.066406 -14.949219 C 9.714844 -12.921875 7.941406 -11.234375 5.574219 -10.472656 Z M 5.574219 -10.472656 "/></g></g></g><g fill="#373434" fill-opacity="1"><g transform="translate(574.38211, 277.529209)"><g/></g></g><g fill="#373434" fill-opacity="1"><g transform="translate(634.767509, 277.529209)"><g><path d="M 19.089844 -22.132812 L 12.078125 -21.878906 C 13.429688 -25.085938 14.359375 -27.453125 14.445312 -27.535156 C 14.613281 -28.128906 14.273438 -28.804688 13.683594 -29.058594 C 13.09375 -29.226562 12.417969 -28.972656 12.164062 -28.296875 C 12.078125 -28.128906 10.898438 -25.085938 9.546875 -21.707031 L 4.644531 -21.539062 C 3.96875 -21.539062 3.464844 -20.949219 3.464844 -20.355469 C 3.546875 -19.679688 4.054688 -19.175781 4.644531 -19.175781 C 4.644531 -19.175781 4.730469 -19.175781 4.730469 -19.175781 L 8.53125 -19.34375 C 7.6875 -17.148438 6.84375 -15.121094 6.25 -13.769531 C 5.996094 -13.175781 6.335938 -12.417969 6.925781 -12.164062 C 7.09375 -12.164062 7.265625 -12.078125 7.347656 -12.078125 C 7.855469 -12.078125 8.277344 -12.417969 8.53125 -12.839844 C 9.375 -15.035156 10.304688 -17.316406 11.148438 -19.429688 L 19.175781 -19.679688 C 19.851562 -19.765625 20.355469 -20.273438 20.355469 -20.949219 C 20.355469 -21.625 19.765625 -22.132812 19.089844 -22.132812 Z M 19.089844 -22.132812 "/></g></g></g><g fill="#373434" fill-opacity="1"><g transform="translate(516.283229, 319.041027)"><g/></g></g><g fill="#373434" fill-opacity="1"><g transform="translate(576.668627, 319.041027)"><g/></g></g><g fill="#373434" fill-opacity="1"><g transform="translate(637.054026, 319.041027)"><g/></g></g><g fill="#373434" fill-opacity="1"><g transform="translate(348.826883, 360.552844)"><g/></g></g><g fill="#373434" fill-opacity="1"><g transform="translate(409.193475, 360.552844)"><g><path d="M 54.3125 -22.722656 C 54.058594 -23.3125 53.382812 -23.652344 52.792969 -23.398438 C 43.5 -20.019531 35.222656 -17.148438 28.210938 -14.949219 C 27.03125 -14.527344 25.933594 -14.273438 24.835938 -13.9375 C 20.527344 -12.839844 16.21875 -11.234375 11.742188 -11.574219 C 13.515625 -16.132812 17.316406 -19.34375 20.273438 -23.058594 C 21.539062 -24.328125 20.273438 -26.523438 18.5 -26.101562 C 12.078125 -25.339844 5.996094 -22.976562 0.167969 -20.1875 C 2.957031 -23.820312 6.417969 -26.609375 9.628906 -29.816406 C 9.460938 -31.167969 8.277344 -31.675781 7.265625 -30.746094 C 2.957031 -27.03125 -1.4375 -23.058594 -4.054688 -17.90625 C -4.222656 -15.878906 -1.859375 -16.21875 -0.761719 -16.976562 C 4.984375 -20.105469 11.234375 -22.382812 17.652344 -23.652344 C 14.949219 -20.609375 12.078125 -17.738281 10.222656 -14.191406 C 9.628906 -13.007812 9.039062 -11.320312 10.136719 -10.222656 C 11.910156 -8.53125 14.78125 -9.121094 16.976562 -9.460938 C 21.117188 -10.304688 29.140625 -12.753906 29.140625 -12.753906 C 41.472656 -16.726562 53.46875 -21.117188 53.636719 -21.203125 C 54.230469 -21.371094 54.566406 -22.046875 54.3125 -22.722656 Z M 54.3125 -22.722656 "/></g></g></g><g fill="#373434" fill-opacity="1"><g transform="translate(461.97792, 360.552844)"><g><path d="M 44.007812 -22.722656 C 43.753906 -23.3125 43.078125 -23.652344 42.488281 -23.398438 C 41.898438 -23.230469 35.394531 -20.863281 32.773438 -20.019531 C 25.171875 -17.230469 17.402344 -14.699219 9.292969 -14.023438 C 6.503906 -13.9375 3.292969 -14.023438 1.011719 -16.050781 C -0.253906 -17.570312 1.011719 -19.679688 1.519531 -21.285156 C 5.828125 -22.636719 10.304688 -24.242188 13.851562 -27.285156 C 14.949219 -28.296875 16.050781 -29.816406 15.542969 -31.507812 C 14.699219 -33.449219 12.164062 -33.449219 10.472656 -32.859375 C 6.503906 -31.507812 3.039062 -28.636719 0.84375 -25.085938 C -1.011719 -22.300781 -3.714844 -16.554688 -0.335938 -13.9375 C 4.390625 -10.390625 10.644531 -11.574219 15.710938 -12.5 C 19.257812 -13.175781 22.722656 -14.105469 26.183594 -15.121094 C 29.5625 -16.472656 42.996094 -20.863281 43.332031 -21.203125 C 43.925781 -21.371094 44.261719 -22.132812 44.007812 -22.722656 Z M 13.597656 -30.914062 C 11.148438 -27.367188 7.011719 -25.761719 3.125 -24.410156 C 5.742188 -27.707031 9.292969 -30.746094 13.597656 -30.914062 Z M 13.597656 -30.914062 "/></g></g></g><g fill="#373434" fill-opacity="1"><g transform="translate(504.458826, 360.552844)"><g><path d="M 59.214844 -22.722656 C 58.960938 -23.3125 58.285156 -23.652344 57.691406 -23.398438 C 28.210938 -13.09375 21.457031 -11.574219 7.6875 -9.882812 C 5.996094 -9.882812 -2.957031 -8.871094 -1.859375 -13.175781 C -1.351562 -16.050781 -0.0859375 -18.753906 1.6875 -21.03125 C 13.429688 -27.285156 25.425781 -33.28125 35.984375 -41.558594 C 38.601562 -43.839844 41.644531 -46.121094 42.910156 -49.5 C 43.585938 -51.019531 42.402344 -52.878906 40.796875 -52.960938 C 38.347656 -53.214844 35.984375 -52.285156 33.703125 -51.355469 C 19.765625 -44.769531 7.433594 -34.71875 -1.265625 -21.878906 C -3.378906 -18.414062 -4.222656 -16.132812 -4.308594 -12.839844 C -4.308594 -6.589844 3.714844 -7.433594 7.6875 -7.433594 C 22.214844 -8.699219 33.535156 -12.585938 33.703125 -12.671875 C 46.121094 -16.640625 58.367188 -21.117188 58.453125 -21.203125 C 59.128906 -21.371094 59.382812 -22.046875 59.214844 -22.722656 Z M 32.605469 -48.148438 C 35.222656 -49.5 37.925781 -50.597656 40.882812 -50.679688 C 38.855469 -46.542969 34.96875 -43.753906 31.339844 -41.050781 C 22.808594 -34.96875 13.597656 -29.902344 4.222656 -25.171875 C 11.742188 -34.886719 21.707031 -42.488281 32.605469 -48.148438 Z M 32.605469 -48.148438 "/></g></g></g><g fill="#373434" fill-opacity="1"><g transform="translate(562.141661, 360.552844)"><g><path d="M 59.214844 -22.722656 C 58.960938 -23.3125 58.285156 -23.652344 57.691406 -23.398438 C 28.210938 -13.09375 21.457031 -11.574219 7.6875 -9.882812 C 5.996094 -9.882812 -2.957031 -8.871094 -1.859375 -13.175781 C -1.351562 -16.050781 -0.0859375 -18.753906 1.6875 -21.03125 C 13.429688 -27.285156 25.425781 -33.28125 35.984375 -41.558594 C 38.601562 -43.839844 41.644531 -46.121094 42.910156 -49.5 C 43.585938 -51.019531 42.402344 -52.878906 40.796875 -52.960938 C 38.347656 -53.214844 35.984375 -52.285156 33.703125 -51.355469 C 19.765625 -44.769531 7.433594 -34.71875 -1.265625 -21.878906 C -3.378906 -18.414062 -4.222656 -16.132812 -4.308594 -12.839844 C -4.308594 -6.589844 3.714844 -7.433594 7.6875 -7.433594 C 22.214844 -8.699219 33.535156 -12.585938 33.703125 -12.671875 C 46.121094 -16.640625 58.367188 -21.117188 58.453125 -21.203125 C 59.128906 -21.371094 59.382812 -22.046875 59.214844 -22.722656 Z M 32.605469 -48.148438 C 35.222656 -49.5 37.925781 -50.597656 40.882812 -50.679688 C 38.855469 -46.542969 34.96875 -43.753906 31.339844 -41.050781 C 22.808594 -34.96875 13.597656 -29.902344 4.222656 -25.171875 C 11.742188 -34.886719 21.707031 -42.488281 32.605469 -48.148438 Z M 32.605469 -48.148438 "/></g></g></g><g fill="#373434" fill-opacity="1"><g transform="translate(619.824496, 360.552844)"><g><path d="M 9.121094 -34.042969 C 8.109375 -33.789062 6.84375 -32.4375 8.023438 -31.507812 C 9.714844 -30.15625 11.910156 -33.871094 9.121094 -34.042969 Z M 36.660156 -22.722656 C 36.492188 -23.398438 35.816406 -23.652344 35.140625 -23.484375 C 31.589844 -22.132812 24.835938 -19.765625 24.75 -19.765625 C 15.203125 -16.472656 0.589844 -12.753906 -2.113281 -14.445312 C -4.222656 -15.878906 2.957031 -23.398438 5.742188 -26.015625 C 6.25 -26.4375 6.335938 -27.199219 5.828125 -27.707031 C 5.40625 -28.210938 4.644531 -28.210938 4.222656 -27.789062 C 2.617188 -26.355469 -5.152344 -19.089844 -4.816406 -14.78125 C -4.5625 -12.078125 -1.605469 -11.65625 0.421875 -11.65625 C 6.417969 -11.65625 16.554688 -14.613281 22.132812 -16.386719 C 22.132812 -16.386719 35.898438 -21.203125 35.984375 -21.203125 C 36.574219 -21.457031 36.914062 -22.132812 36.660156 -22.722656 Z M 36.660156 -22.722656 "/></g></g></g><g fill="#373434" fill-opacity="1"><g transform="translate(654.957817, 360.552844)"><g><path d="M 44.007812 -22.722656 C 43.753906 -23.3125 43.078125 -23.652344 42.488281 -23.398438 C 41.898438 -23.230469 35.394531 -20.863281 32.773438 -20.019531 C 25.171875 -17.230469 17.402344 -14.699219 9.292969 -14.023438 C 6.503906 -13.9375 3.292969 -14.023438 1.011719 -16.050781 C -0.253906 -17.570312 1.011719 -19.679688 1.519531 -21.285156 C 5.828125 -22.636719 10.304688 -24.242188 13.851562 -27.285156 C 14.949219 -28.296875 16.050781 -29.816406 15.542969 -31.507812 C 14.699219 -33.449219 12.164062 -33.449219 10.472656 -32.859375 C 6.503906 -31.507812 3.039062 -28.636719 0.84375 -25.085938 C -1.011719 -22.300781 -3.714844 -16.554688 -0.335938 -13.9375 C 4.390625 -10.390625 10.644531 -11.574219 15.710938 -12.5 C 19.257812 -13.175781 22.722656 -14.105469 26.183594 -15.121094 C 29.5625 -16.472656 42.996094 -20.863281 43.332031 -21.203125 C 43.925781 -21.371094 44.261719 -22.132812 44.007812 -22.722656 Z M 13.597656 -30.914062 C 11.148438 -27.367188 7.011719 -25.761719 3.125 -24.410156 C 5.742188 -27.707031 9.292969 -30.746094 13.597656 -30.914062 Z M 13.597656 -30.914062 "/></g></g></g></svg>