<svg xmlns="http://www.w3.org/2000/svg" xmlns:xlink="http://www.w3.org/1999/xlink" width="1366" zoomAndPan="magnify" viewBox="0 0 1024.5 576" height="768" preserveAspectRatio="xMidYMid meet" version="1.0"><defs><g/></defs><g fill="#373434" fill-opacity="1"><g transform="translate(265.545723, 308.390262)"><g><path d="M 57.691406 -22.722656 C 57.4375 -23.3125 56.761719 -23.648438 56.167969 -23.398438 C 54.988281 -23.144531 41.640625 -17.652344 34.292969 -16.640625 C 28.042969 -16.046875 20.273438 -16.046875 16.046875 -21.621094 C 17.992188 -23.226562 19.933594 -24.832031 21.453125 -26.859375 C 22.214844 -27.957031 22.890625 -29.5625 21.960938 -30.746094 C 20.609375 -32.433594 18.074219 -31.84375 16.640625 -30.660156 C 14.105469 -28.800781 13.34375 -25.507812 13.261719 -22.550781 C 8.445312 -19.171875 3.378906 -16.046875 -2.113281 -14.019531 C -0.421875 -18.75 2.789062 -22.722656 4.476562 -27.367188 C 4.644531 -28.71875 2.957031 -29.394531 2.195312 -27.703125 C 0 -22.972656 -3.464844 -18.835938 -4.5625 -13.683594 C -4.476562 -11.234375 -1.605469 -11.570312 0.0859375 -12.246094 C 5.066406 -14.273438 9.628906 -17.0625 14.105469 -20.1875 C 17.484375 -15.542969 23.398438 -14.019531 28.800781 -14.019531 C 38.429688 -14.019531 47.722656 -17.652344 57.015625 -21.199219 C 57.605469 -21.371094 57.941406 -22.128906 57.691406 -22.722656 Z M 15.371094 -24.242188 C 16.300781 -26.605469 17.570312 -29.140625 20.273438 -29.730469 C 19.171875 -27.449219 17.316406 -25.761719 15.371094 -24.242188 Z M 15.371094 -24.242188 "/></g></g></g><g fill="#373434" fill-opacity="1"><g transform="translate(321.709646, 308.390262)"><g><path d="M 52.113281 -22.722656 C 51.945312 -23.398438 51.1875 -23.648438 50.59375 -23.480469 C 49.160156 -22.890625 46.371094 -21.960938 46.371094 -21.960938 C 36.40625 -18.074219 21.199219 -13.34375 18.667969 -14.613281 C 18.496094 -14.695312 18.496094 -14.78125 18.496094 -14.867188 C 18.414062 -15.796875 19.425781 -17.570312 21.117188 -19.679688 C 22.890625 -21.453125 23.902344 -22.636719 26.4375 -25.761719 C 26.945312 -26.945312 24.832031 -27.113281 24.15625 -27.199219 C 23.734375 -27.199219 23.398438 -27.199219 22.972656 -27.199219 C 23.144531 -29.5625 21.453125 -31.503906 19.171875 -32.011719 C 13.769531 -33.363281 8.53125 -30.238281 4.308594 -27.113281 C 1.773438 -25.085938 -1.183594 -23.226562 -2.535156 -20.1875 C -3.210938 -18.074219 -0.421875 -17.398438 1.097656 -17.992188 C 8.191406 -19.765625 14.949219 -22.550781 22.296875 -24.410156 C 20.949219 -23.144531 18.160156 -19.679688 18.160156 -19.679688 C 16.808594 -17.738281 15.964844 -15.878906 16.132812 -14.527344 C 16.21875 -13.683594 16.722656 -12.921875 17.570312 -12.5 C 18.074219 -12.246094 18.921875 -12.078125 19.933594 -12.078125 C 26.183594 -12.078125 39.867188 -16.976562 45.441406 -19.089844 C 49.074219 -20.355469 51.355469 -21.199219 51.4375 -21.199219 C 51.863281 -21.371094 52.113281 -21.707031 52.199219 -22.128906 C 52.199219 -22.382812 52.199219 -22.550781 52.113281 -22.722656 Z M 20.273438 -26.351562 C 13.429688 -24.578125 6.925781 -21.875 0.0859375 -20.273438 C 3.800781 -24.074219 8.191406 -27.535156 13.261719 -29.394531 C 15.796875 -30.324219 21.707031 -30.492188 20.273438 -26.351562 Z M 18.75 -41.894531 C 17.652344 -41.132812 16.976562 -39.613281 17.820312 -38.429688 C 19.597656 -36.828125 22.890625 -38.9375 22.296875 -41.21875 C 21.621094 -42.484375 19.679688 -43.078125 18.75 -41.894531 Z M 27.957031 -42.484375 C 26.777344 -41.980469 25.929688 -40.964844 25.929688 -39.53125 C 26.605469 -37.417969 29.816406 -37.671875 30.660156 -39.53125 C 30.660156 -40.035156 30.660156 -40.542969 30.660156 -41.050781 C 30.578125 -42.65625 27.957031 -42.484375 27.957031 -42.484375 Z M 27.957031 -42.484375 "/></g></g></g><g fill="#373434" fill-opacity="1"><g transform="translate(372.299404, 308.390262)"><g><path d="M 59.210938 -22.722656 C 58.957031 -23.3125 58.28125 -23.648438 57.691406 -23.398438 C 28.210938 -13.09375 21.453125 -11.570312 7.6875 -9.882812 C 5.996094 -9.882812 -2.957031 -8.867188 -1.859375 -13.175781 C -1.351562 -16.046875 -0.0859375 -18.75 1.6875 -21.03125 C 13.429688 -27.28125 25.425781 -33.277344 35.980469 -41.558594 C 38.601562 -43.835938 41.640625 -46.117188 42.910156 -49.496094 C 43.582031 -51.015625 42.402344 -52.875 40.796875 -52.960938 C 38.347656 -53.214844 35.980469 -52.285156 33.703125 -51.355469 C 19.765625 -44.765625 7.433594 -34.714844 -1.265625 -21.875 C -3.378906 -18.414062 -4.222656 -16.132812 -4.308594 -12.839844 C -4.308594 -6.589844 3.714844 -7.433594 7.6875 -7.433594 C 22.214844 -8.699219 33.53125 -12.585938 33.703125 -12.667969 C 46.117188 -16.640625 58.367188 -21.117188 58.449219 -21.199219 C 59.125 -21.371094 59.378906 -22.046875 59.210938 -22.722656 Z M 32.601562 -48.144531 C 35.222656 -49.496094 37.925781 -50.59375 40.882812 -50.679688 C 38.855469 -46.539062 34.96875 -43.753906 31.335938 -41.050781 C 22.804688 -34.96875 13.597656 -29.902344 4.222656 -25.171875 C 11.742188 -34.882812 21.707031 -42.484375 32.601562 -48.144531 Z M 32.601562 -48.144531 "/></g></g></g><g fill="#373434" fill-opacity="1"><g transform="translate(429.983559, 308.390262)"><g><path d="M 60.476562 -22.722656 C 60.308594 -23.3125 59.632812 -23.648438 58.957031 -23.398438 C 55.914062 -22.296875 52.960938 -21.199219 50.171875 -20.1875 C 50.171875 -20.1875 35.304688 -14.695312 32.179688 -13.429688 C 21.117188 -9.121094 9.628906 -4.5625 6.589844 -5.660156 C 5.914062 -5.914062 5.488281 -6.25 5.238281 -6.839844 C 4.5625 -8.699219 6.25 -12.246094 7.179688 -13.851562 C 12.078125 -15.035156 17.144531 -16.046875 21.621094 -18.667969 C 23.3125 -19.765625 25.425781 -21.539062 24.578125 -23.820312 C 22.46875 -26.183594 19.089844 -24.917969 16.640625 -24.074219 C 9.796875 -21.453125 3.125 -17.90625 -2.195312 -12.667969 C -0.84375 -15.878906 0.421875 -19.34375 2.449219 -20.609375 C 12.078125 -26.859375 22.46875 -31.929688 32.097656 -38.261719 C 35.304688 -40.457031 38.769531 -42.738281 40.964844 -46.035156 C 42.234375 -47.890625 42.0625 -50.933594 39.867188 -51.945312 C 35.8125 -53.972656 31.335938 -51.945312 27.621094 -50.171875 C 10.644531 -40.628906 -2.789062 -25 -6.335938 -6.757812 C -6.417969 -5.914062 -5.742188 -5.574219 -4.984375 -6.082031 C -3.378906 -7.6875 -1.097656 -11.824219 4.140625 -13.175781 C 3.210938 -11.148438 2.28125 -8.277344 3.039062 -5.996094 C 3.800781 -3.886719 5.914062 -3.125 7.6875 -3.125 C 12.164062 -3.125 20.609375 -6.335938 33.027344 -11.234375 C 37.503906 -13.007812 59.714844 -21.117188 59.800781 -21.199219 C 60.390625 -21.371094 60.730469 -22.046875 60.476562 -22.722656 Z M 22.550781 -22.890625 C 18.328125 -18.246094 11.488281 -17.484375 5.660156 -16.046875 C 11.066406 -18.835938 16.386719 -22.296875 22.550781 -22.890625 Z M 29.394531 -48.3125 C 32.601562 -49.75 36.742188 -51.777344 39.699219 -48.988281 C 37.925781 -44.851562 33.871094 -42.402344 30.238281 -39.953125 C 21.453125 -34.207031 12.078125 -29.394531 3.125 -23.988281 C 9.542969 -34.207031 18.667969 -42.824219 29.394531 -48.3125 Z M 29.394531 -48.3125 "/></g></g></g><g fill="#373434" fill-opacity="1"><g transform="translate(488.934553, 308.390262)"><g><path d="M 45.695312 -22.722656 C 45.441406 -23.3125 44.765625 -23.648438 44.175781 -23.398438 C 43.5 -23.144531 39.277344 -21.621094 38.855469 -21.453125 C 24.324219 -16.300781 15.121094 -17.230469 10.726562 -18.414062 C 13.429688 -22.214844 14.019531 -27.875 10.8125 -31.503906 C 8.191406 -34.714844 2.617188 -33.953125 0.589844 -30.40625 C -0.929688 -28.296875 -0.507812 -25.507812 0.253906 -23.144531 C -2.28125 -20.695312 -4.984375 -18.160156 -6.417969 -14.78125 C -7.347656 -12.839844 -5.574219 -10.558594 -3.464844 -10.558594 C 1.351562 -10.21875 5.660156 -13.09375 8.867188 -16.386719 L 8.953125 -16.46875 C 10.980469 -15.796875 14.105469 -15.121094 18.496094 -15.121094 C 23.3125 -15.121094 29.476562 -15.878906 37.25 -18.414062 C 37.503906 -18.496094 44.933594 -21.117188 45.019531 -21.199219 C 45.609375 -21.371094 45.949219 -22.046875 45.695312 -22.722656 Z M 10.472656 -26.777344 C 11.234375 -23.988281 9.714844 -21.453125 8.191406 -19.257812 C 6.082031 -20.1875 4.644531 -21.285156 3.464844 -22.636719 C 5.40625 -24.832031 4.054688 -25.59375 2.113281 -24.578125 C 0.929688 -31.929688 9.542969 -33.617188 10.472656 -26.777344 Z M -4.476562 -13.175781 C -3.210938 -16.300781 -0.84375 -18.75 1.519531 -21.117188 C 3.039062 -19.679688 4.730469 -18.414062 6.503906 -17.316406 C 3.464844 -14.695312 -0.335938 -12.332031 -4.476562 -13.175781 Z M -4.476562 -13.175781 "/></g></g></g><g fill="#373434" fill-opacity="1"><g transform="translate(533.105583, 308.390262)"><g><path d="M 66.8125 -22.804688 C 66.558594 -23.398438 65.882812 -23.734375 65.292969 -23.480469 C 55.410156 -19.847656 46.625 -16.894531 39.277344 -14.527344 C 34.546875 -12.921875 25.929688 -9.628906 24.664062 -11.488281 C 24.242188 -11.992188 25.171875 -13.683594 26.777344 -15.542969 C 30.40625 -19.089844 34.546875 -22.972656 34.207031 -24.578125 C 33.703125 -28.210938 24.917969 -24.410156 23.398438 -23.734375 C 19.597656 -22.214844 15.878906 -20.355469 12.332031 -18.246094 C 13.175781 -20.019531 14.445312 -21.621094 14.78125 -23.566406 C 14.359375 -25 12.753906 -25.59375 11.402344 -25.171875 C 7.601562 -24.324219 4.222656 -22.128906 0.675781 -20.355469 C 2.449219 -23.058594 4.5625 -25.425781 6.589844 -27.789062 C 7.433594 -29.054688 5.238281 -30.152344 4.644531 -28.972656 C 1.859375 -26.351562 -0.335938 -23.226562 -2.363281 -20.019531 C -3.292969 -18.921875 -3.039062 -16.808594 -1.265625 -16.894531 C 3.378906 -18.414062 7.265625 -21.621094 12.078125 -22.972656 C 11.066406 -21.03125 9.882812 -19.171875 9.375 -17.144531 C 8.867188 -15.964844 10.304688 -14.78125 11.402344 -15.289062 C 13.769531 -16.046875 15.710938 -17.484375 17.820312 -18.582031 C 19.765625 -19.679688 30.152344 -23.734375 31.589844 -23.820312 C 29.476562 -21.371094 19.679688 -13.851562 22.722656 -10.050781 C 23.480469 -8.953125 24.664062 -8.53125 26.269531 -8.53125 C 28.972656 -8.53125 32.773438 -9.796875 37.332031 -11.316406 C 38.855469 -11.824219 40.457031 -12.417969 42.148438 -12.921875 C 53.886719 -16.808594 66.050781 -21.285156 66.136719 -21.285156 C 66.726562 -21.453125 67.066406 -22.128906 66.8125 -22.804688 Z M 66.8125 -22.804688 "/></g></g></g><g fill="#373434" fill-opacity="1"><g transform="translate(598.390869, 308.390262)"><g><path d="M 66.8125 -22.804688 C 66.558594 -23.398438 65.882812 -23.734375 65.292969 -23.480469 C 55.410156 -19.847656 46.625 -16.894531 39.277344 -14.527344 C 34.546875 -12.921875 25.929688 -9.628906 24.664062 -11.488281 C 24.242188 -11.992188 25.171875 -13.683594 26.777344 -15.542969 C 30.40625 -19.089844 34.546875 -22.972656 34.207031 -24.578125 C 33.703125 -28.210938 24.917969 -24.410156 23.398438 -23.734375 C 19.597656 -22.214844 15.878906 -20.355469 12.332031 -18.246094 C 13.175781 -20.019531 14.445312 -21.621094 14.78125 -23.566406 C 14.359375 -25 12.753906 -25.59375 11.402344 -25.171875 C 7.601562 -24.324219 4.222656 -22.128906 0.675781 -20.355469 C 2.449219 -23.058594 4.5625 -25.425781 6.589844 -27.789062 C 7.433594 -29.054688 5.238281 -30.152344 4.644531 -28.972656 C 1.859375 -26.351562 -0.335938 -23.226562 -2.363281 -20.019531 C -3.292969 -18.921875 -3.039062 -16.808594 -1.265625 -16.894531 C 3.378906 -18.414062 7.265625 -21.621094 12.078125 -22.972656 C 11.066406 -21.03125 9.882812 -19.171875 9.375 -17.144531 C 8.867188 -15.964844 10.304688 -14.78125 11.402344 -15.289062 C 13.769531 -16.046875 15.710938 -17.484375 17.820312 -18.582031 C 19.765625 -19.679688 30.152344 -23.734375 31.589844 -23.820312 C 29.476562 -21.371094 19.679688 -13.851562 22.722656 -10.050781 C 23.480469 -8.953125 24.664062 -8.53125 26.269531 -8.53125 C 28.972656 -8.53125 32.773438 -9.796875 37.332031 -11.316406 C 38.855469 -11.824219 40.457031 -12.417969 42.148438 -12.921875 C 53.886719 -16.808594 66.050781 -21.285156 66.136719 -21.285156 C 66.726562 -21.453125 67.066406 -22.128906 66.8125 -22.804688 Z M 66.8125 -22.804688 "/></g></g></g><g fill="#373434" fill-opacity="1"><g transform="translate(663.676155, 308.390262)"><g><path d="M 44.007812 -22.722656 C 43.753906 -23.3125 43.078125 -23.648438 42.484375 -23.398438 C 41.894531 -23.226562 35.390625 -20.863281 32.773438 -20.019531 C 25.171875 -17.230469 17.398438 -14.695312 9.292969 -14.019531 C 6.503906 -13.9375 3.292969 -14.019531 1.011719 -16.046875 C -0.253906 -17.570312 1.011719 -19.679688 1.519531 -21.285156 C 5.828125 -22.636719 10.304688 -24.242188 13.851562 -27.28125 C 14.949219 -28.296875 16.046875 -29.816406 15.542969 -31.503906 C 14.695312 -33.449219 12.164062 -33.449219 10.472656 -32.855469 C 6.503906 -31.503906 3.039062 -28.632812 0.84375 -25.085938 C -1.011719 -22.296875 -3.714844 -16.554688 -0.335938 -13.9375 C 4.390625 -10.390625 10.644531 -11.570312 15.710938 -12.5 C 19.257812 -13.175781 22.722656 -14.105469 26.183594 -15.121094 C 29.5625 -16.46875 42.992188 -20.863281 43.332031 -21.199219 C 43.921875 -21.371094 44.257812 -22.128906 44.007812 -22.722656 Z M 13.597656 -30.914062 C 11.148438 -27.367188 7.011719 -25.761719 3.125 -24.410156 C 5.742188 -27.703125 9.292969 -30.746094 13.597656 -30.914062 Z M 13.597656 -30.914062 "/></g></g></g><g fill="#373434" fill-opacity="1"><g transform="translate(706.158038, 308.390262)"><g><path d="M 54.3125 -22.722656 C 54.058594 -23.3125 53.382812 -23.648438 52.789062 -23.398438 C 43.5 -20.019531 35.222656 -17.144531 28.210938 -14.949219 C 27.027344 -14.527344 25.929688 -14.273438 24.832031 -13.9375 C 20.523438 -12.839844 16.21875 -11.234375 11.742188 -11.570312 C 13.515625 -16.132812 17.316406 -19.34375 20.273438 -23.058594 C 21.539062 -24.324219 20.273438 -26.523438 18.496094 -26.101562 C 12.078125 -25.339844 5.996094 -22.972656 0.167969 -20.1875 C 2.957031 -23.820312 6.417969 -26.605469 9.628906 -29.816406 C 9.460938 -31.167969 8.277344 -31.675781 7.265625 -30.746094 C 2.957031 -27.027344 -1.4375 -23.058594 -4.054688 -17.90625 C -4.222656 -15.878906 -1.859375 -16.21875 -0.761719 -16.976562 C 4.984375 -20.101562 11.234375 -22.382812 17.652344 -23.648438 C 14.949219 -20.609375 12.078125 -17.738281 10.21875 -14.191406 C 9.628906 -13.007812 9.039062 -11.316406 10.136719 -10.21875 C 11.910156 -8.53125 14.78125 -9.121094 16.976562 -9.460938 C 21.117188 -10.304688 29.140625 -12.753906 29.140625 -12.753906 C 41.472656 -16.722656 53.464844 -21.117188 53.636719 -21.199219 C 54.226562 -21.371094 54.5625 -22.046875 54.3125 -22.722656 Z M 54.3125 -22.722656 "/></g></g></g></svg>